<?xml version="1.0" encoding="UTF-8"?>
<svg xmlns="http://www.w3.org/2000/svg" viewBox="0 0 52.5 43.89">
  <defs>
    <style>
      .cls-1 {
        fill: #ed1c24;
      }

      .cls-1, .cls-2, .cls-3, .cls-4, .cls-5, .cls-6 {
        stroke: #231f20;
        stroke-miterlimit: 10;
      }

      .cls-7 {
        fill: #fff;
      }

      .cls-2 {
        fill: #48a357;
      }

      .cls-3 {
        fill: #542d2d;
      }

      .cls-4 {
        fill: none;
        stroke-width: .25px;
      }

      .cls-5 {
        fill: #ffff57;
      }

      .cls-6 {
        fill: #eec07b;
      }
    </style>
  </defs>
  <g id="Layer_1" data-name="Layer 1">
    <path class="cls-6" d="M51.46,37.24c.66-2.17-.59-6.82-8.47-5.82-3.01.38-12.46-.33-16.95-.33-5.88,0-11.15.02-15.5-.22C.48,30.31.17,35.33.62,37.24c.82,3.49,11.38,6.15,25.42,6.15s24.37-2.66,25.42-6.15Z"/>
    <path class="cls-3" d="M51.46,25.36c0,2.38,1.61,4.96-23.78,5.08-26.46.13-25.56-2.28-25.56-5.08s-2.25-5.29,25.56-5.08c23.4.17,23.77,2.28,23.78,5.08Z"/>
    <path class="cls-2" d="M16.16,30.85c0,1.87,1.52,5.3-.19,5.62-3.39.64-3.68-2.52-5.06-2.52-1.62,0-3.92,3.16-6.12,1.6-1.23-.88-.83-5.68.78-5.89"/>
    <path class="cls-2" d="M47.4,29.65c0,1.87.07,6.46-1.63,6.12-3.28-.65-6.37-2.68-6.87-.78-.68,2.57-2.21,3.9-3.81,1.56-.85-1.25-2.96-4.11-2.96-5.73"/>
    <path class="cls-2" d="M32.14,31.27c0,1.87-.38,4.88-2.08,5.2-3.39.64-3.68-2.52-5.06-2.52-1.62,0-3.92,3.16-6.12,1.6-1.23-.88-2.72-3.06-2.72-4.69"/>
    <polyline class="cls-5" points="36.28 23.17 26.59 28.54 18.31 23.29"/>
    <line class="cls-4" x1="8.46" y1="29.7" x2="6.42" y2="33.7"/>
    <line class="cls-4" x1="12.92" y1="30.45" x2="14.62" y2="33.71"/>
    <line class="cls-4" x1="21.72" y1="30.82" x2="20.12" y2="33.71"/>
    <line class="cls-4" x1="27.72" y1="31" x2="28.82" y2="34.3"/>
    <line class="cls-4" x1="35.82" y1="30.45" x2="36.28" y2="34.6"/>
    <line class="cls-4" x1="41.12" y1="29.65" x2="44.82" y2="33.1"/>
    <path class="cls-1" d="M51.98,20.6c0,.8.75,2.38-6.64,2.14-4.52-.14-1.52,4.56-4.12,4.56s-.6-4.6-5.98-4.21c-2.08.15-4.42.05-7.04.06-5.18.01-10.87.33-14.36.38-4.12.07-2.36,3.35-3.97,3.35-3.17,0,.51-3.93-1.55-4.2-2.72-.36-5.69-1.45-5.69-2.07,0-1.4-2.25-2.65,25.56-2.54,23.4.09,23.77,1.14,23.78,2.54Z"/>
    <path class="cls-6" d="M1.01,9.39c-.66,3.14.59,9.85,8.47,8.41,3.01-.55,12.46.48,16.95.48,5.88,0,11.15-.03,15.5.32,10.06.8,10.36-6.46,9.92-9.21-.82-5.04-11.38-8.89-25.42-8.89-14.04,0-24.37,3.84-25.42,8.89Z"/>
  </g>
  <g id="Layer_4" data-name="Layer 4">
    <ellipse class="cls-7" cx="6.84" cy="8.02" rx=".6" ry="1.4"/>
    <ellipse class="cls-7" cx="6.84" cy="14.78" rx=".6" ry="1.4"/>
    <ellipse class="cls-7" cx="11.82" cy="11.27" rx=".6" ry="1.4"/>
    <ellipse class="cls-7" cx="13.02" cy="14.78" rx=".6" ry="1.4"/>
    <ellipse class="cls-7" cx="9.59" cy="14.07" rx=".6" ry="1.4"/>
    <ellipse class="cls-7" cx="8.99" cy="10.27" rx=".6" ry="1.4"/>
    <ellipse class="cls-7" cx="4.67" cy="11.67" rx=".6" ry="1.4"/>
    <ellipse class="cls-7" cx="11.82" cy="4.7" rx=".6" ry="1.4"/>
    <ellipse class="cls-7" cx="10.43" cy="8.02" rx=".6" ry="1.4"/>
    <ellipse class="cls-7" cx="13.62" cy="7.02" rx=".6" ry="1.4"/>
    <ellipse class="cls-7" cx="17.71" cy="8.87" rx=".6" ry="1.4"/>
    <ellipse class="cls-7" cx="20.32" cy="15.47" rx=".6" ry="1.4"/>
    <ellipse class="cls-7" cx="22.81" cy="12.96" rx=".6" ry="1.4"/>
    <ellipse class="cls-7" cx="18.31" cy="12.96" rx=".6" ry="1.4"/>
    <ellipse class="cls-7" cx="15.89" cy="15.14" rx=".6" ry="1.4"/>
    <ellipse class="cls-7" cx="15.56" cy="10.82" rx=".6" ry="1.4"/>
    <ellipse class="cls-7" cx="16.16" cy="6.1" rx=".6" ry="1.4"/>
    <ellipse class="cls-7" cx="17.71" cy="3.32" rx=".6" ry="1.4"/>
    <ellipse class="cls-7" cx="21.58" cy="3.3" rx=".6" ry="1.4"/>
    <ellipse class="cls-7" cx="25.46" cy="9.42" rx=".6" ry="1.4"/>
    <ellipse class="cls-7" cx="26.13" cy="3.57" rx=".53" ry="1.15"/>
    <ellipse class="cls-7" cx="28.87" cy="15.58" rx=".6" ry="1.4"/>
    <ellipse class="cls-7" cx="26.06" cy="12.67" rx=".6" ry="1.4"/>
    <ellipse class="cls-7" cx="21.58" cy="9.58" rx=".6" ry="1.4"/>
    <ellipse class="cls-7" cx="20.23" cy="6.62" rx=".6" ry="1.4"/>
    <ellipse class="cls-7" cx="24.59" cy="15.58" rx=".6" ry="1.4"/>
    <ellipse class="cls-7" cx="23.55" cy="6.1" rx=".6" ry="1.4"/>
    <ellipse class="cls-7" cx="43.64" cy="8.18" rx=".6" ry="1.4"/>
    <ellipse class="cls-7" cx="44.77" cy="5.62" rx=".3" ry="1.4"/>
    <ellipse class="cls-7" cx="37.97" cy="4.7" rx=".6" ry="1.4"/>
    <ellipse class="cls-7" cx="48.16" cy="8.02" rx=".6" ry="1.4"/>
    <ellipse class="cls-7" cx="40.81" cy="4.7" rx=".6" ry="1.4"/>
    <ellipse class="cls-7" cx="32.74" cy="8.42" rx=".6" ry="1.4"/>
    <ellipse class="cls-7" cx="40.81" cy="10.27" rx=".6" ry="1.4"/>
    <ellipse class="cls-7" cx="46.27" cy="16.18" rx=".6" ry="1.4"/>
    <ellipse class="cls-7" cx="48.76" cy="13.67" rx=".6" ry="1.4"/>
    <ellipse class="cls-7" cx="37.97" cy="12.67" rx=".6" ry="1.4"/>
    <ellipse class="cls-7" cx="35.17" cy="15.58" rx=".6" ry="1.4"/>
    <ellipse class="cls-7" cx="39.17" cy="16.54" rx=".6" ry="1.4"/>
    <ellipse class="cls-7" cx="34.08" cy="5.41" rx=".6" ry="1.4"/>
    <ellipse class="cls-7" cx="30.07" cy="6.1" rx=".6" ry="1.4"/>
    <ellipse class="cls-7" cx="35.77" cy="2.42" rx=".56" ry="1.06"/>
    <ellipse class="cls-7" cx="50.81" cy="10.27" rx=".6" ry="1.4"/>
    <ellipse class="cls-7" cx="29.2" cy="2.19" rx=".33" ry="1.11"/>
    <ellipse class="cls-7" cx="32.14" cy="13.67" rx=".6" ry="1.4"/>
    <ellipse class="cls-7" cx="45.67" cy="11.56" rx=".6" ry="1.4"/>
    <ellipse class="cls-7" cx="36.97" cy="8.42" rx=".6" ry="1.4"/>
    <ellipse class="cls-7" cx="34.68" cy="11.69" rx=".6" ry="1.4"/>
    <ellipse class="cls-7" cx="42.44" cy="15.14" rx=".6" ry="1.4"/>
    <ellipse class="cls-7" cx="28.87" cy="10.27" rx=".6" ry="1.4"/>
  </g>
</svg>